<svg xmlns="http://www.w3.org/2000/svg" width="362.734" height="512" viewBox="0 0 362.734 512">
  <defs>
    <style>
      .cls-1 {
        fill: #264de4;
      }

      .cls-2 {
        fill: #2965f1;
      }

      .cls-3 {
        fill: #ebebeb;
      }

      .cls-4 {
        fill: #fff;
      }
    </style>
  </defs>
  <g id="layer1" transform="translate(-193.633 -276.362)">
    <g id="g3013" transform="translate(119 276.362)">
      <path id="polygon2989" class="cls-1" d="M437.367,100.62l-33.046,370.2L255.778,512,107.644,470.877,74.633,100.62Z"/>
      <path id="polygon2991" class="cls-2" d="M376.03,447.246l28.24-316.352H256V480.523Z"/>
      <path id="polygon2993" class="cls-3" d="M150.31,268.217l4.07,45.41H256v-45.41Z"/>
      <path id="polygon2995" class="cls-3" d="M256,176.3H142.132l4.128,45.411H256Z"/>
      <path id="polygon2997" class="cls-3" d="M256,433.4V386.153l-.2.053L205.227,372.55l-3.233-36.217H156.409l6.362,71.3,93.02,25.823Z"/>
      <g id="Group_75" data-name="Group 75">
        <path id="path2999" class="cls-4" d="M160,0h55V23H183V46h32V69H160Z"/>
        <path id="path3001" class="cls-4" d="M226,0h55V20H249v4h32V70H226V49h32V45H226Z"/>
        <path id="path3003" class="cls-4" d="M292,0h55V20H315v4h32V70H292V49h32V45H292Z"/>
      </g>
      <path id="polygon3005" class="cls-4" d="M311.761,313.627l-5.271,58.894-50.647,13.67v47.244l93.094-25.8.683-7.672,10.671-119.551,1.108-12.194,8.2-91.912H255.843v45.411h63.988l-4.132,46.5H255.843v45.41Z"/>
    </g>
  </g>
</svg>
