<svg id="kuyjf3vea2hg34taa-horizontal_default_slate_blue" xmlns="http://www.w3.org/2000/svg" width="1102" height="278" viewBox="0 0 1102 278">
  <defs>
    <style>
      .cls-1 {
        fill: #3d986e;
      }
    </style>
  </defs>
  <path id="Path_85" data-name="Path 85" class="cls-1" d="M82.323,28.644C71.537,15.847,62.249,2.849,60.351.15a.482.482,0,0,0-.7,0c-1.9,2.7-11.186,15.7-21.972,28.494C-54.9,146.721,52.261,226.406,52.261,226.406l.9.6c.8,12.3,2.8,29.994,2.8,29.994h7.99s2-17.6,2.8-29.994l.9-.7C67.741,226.406,174.9,146.721,82.323,28.644ZM59.951,224.606s-4.794-4.1-6.092-6.2v-.2L59.652,89.633a.3.3,0,1,1,.6,0l5.793,128.574v.2C64.745,220.507,59.951,224.606,59.951,224.606Z"/>
  <path id="Path_86" data-name="Path 86" class="cls-1" d="M260.5,198.369,215.845,89.3l-.1-.3H181v7.331h5.607a6.334,6.334,0,0,1,6.308,6.428l-1,109.771a6.4,6.4,0,0,1-6.208,6.327l-5.707.1v7.231h33.843v-7.231l-3.505-.1a6.4,6.4,0,0,1-6.208-6.327V109.086l48.662,117.1a4.4,4.4,0,0,0,8.21,0L308.562,111.7l.7,100.833a6.442,6.442,0,0,1-6.308,6.427h-3.6v7.231H339v-7.231h-5.407a6.491,6.491,0,0,1-6.308-6.327l-.3-109.771a6.424,6.424,0,0,1,6.208-6.427l5.807-.1V89H305.157Z"/>
  <path id="Path_87" data-name="Path 87" class="cls-1" d="M571.869,217.046a6.071,6.071,0,0,1-1.707-4.426V158.7c0-10.261-3.011-18.31-9.035-24.044-5.922-5.735-14.154-8.652-24.393-8.652-14.356,0-25.7,5.835-33.63,17.3a.78.78,0,0,1-.7.3.475.475,0,0,1-.5-.5l-3.715-14.387h-6.224L476,137.871v5.03h4.116a6.72,6.72,0,0,1,4.618,1.51,5.929,5.929,0,0,1,1.706,4.627v63.481a5.855,5.855,0,0,1-6.123,6.137H476.3V226h36.741v-7.344h-4.015a5.856,5.856,0,0,1-6.124-6.137V170.467a40.8,40.8,0,0,1,3.414-15.9,31.817,31.817,0,0,1,10.239-12.776,26.574,26.574,0,0,1,16.162-4.93c7.027,0,12.348,2.213,15.66,6.64s5.02,10.161,5.02,17v51.912a5.856,5.856,0,0,1-6.124,6.136h-4.015V225.9H580v-7.344h-4.015A5.052,5.052,0,0,1,571.869,217.046Z"/>
  <path id="Path_88" data-name="Path 88" class="cls-1" d="M907.546,97.212A71.031,71.031,0,0,0,873.792,89H826v7.311h4.68a6.783,6.783,0,0,1,4.978,2.3,7.076,7.076,0,0,1,2.29,5.007V211.379a7.076,7.076,0,0,1-2.29,5.007,7,7,0,0,1-4.978,2.3H826V226h47.792a71.03,71.03,0,0,0,33.754-8.212,61.643,61.643,0,0,0,24.394-23.634c5.974-10.215,9.06-22.533,9.06-36.554s-3.086-26.238-9.06-36.553A62.132,62.132,0,0,0,907.546,97.212ZM921.784,157.4c0,12.819-2.29,23.634-6.771,32.347s-10.455,15.222-17.823,19.429a48.32,48.32,0,0,1-24.294,6.309h-9.658a6.781,6.781,0,0,1-4.978-2.3,7.074,7.074,0,0,1-2.29-5.007V106.526a6.86,6.86,0,0,1,2.29-5.008,7,7,0,0,1,4.978-2.3H872.9a48.32,48.32,0,0,1,24.294,6.309c7.368,4.206,13.343,10.716,17.823,19.428C919.494,133.765,921.784,144.681,921.784,157.4Z"/>
  <path id="Path_89" data-name="Path 89" class="cls-1" d="M1053.97,164.711c-4.42-5.108-12.95-9.414-22.98-11.718,13.85-6.91,20.97-16.624,20.97-29.142a31.108,31.108,0,0,0-5.42-18.127,36.032,36.032,0,0,0-15.25-12.318A55.742,55.742,0,0,0,1008.5,89H954.4v7.311h4.316a6.863,6.863,0,0,1,5.018,2.3,7.052,7.052,0,0,1,2.309,5.007V211.379a7.953,7.953,0,0,1-7.327,7.31H954V226h58.72a66.548,66.548,0,0,0,24.79-4.507,40.3,40.3,0,0,0,17.87-13.219c4.41-5.808,6.62-12.919,6.62-21.131C1061.9,178.33,1059.29,170.819,1053.97,164.711Zm-67.349,48.57a7.05,7.05,0,0,1-2.309-5.007V159.9h27.908q14.745,0,22.58,7.511t7.83,19.529a30.361,30.361,0,0,1-3.41,13.82,26.336,26.336,0,0,1-10.34,10.616c-4.52,2.7-10.14,4.106-16.66,4.106H991.639A7.126,7.126,0,0,1,986.621,213.281Zm-2.208-63.693V106.626a6.834,6.834,0,0,1,2.308-5.008,7.084,7.084,0,0,1,5.019-2.3h13.25c9.53,0,16.56,2.4,20.98,7.01,4.41,4.707,6.62,10.716,6.62,18.127,0,7.611-2.11,13.72-6.22,18.326-4.12,4.507-10.34,6.81-18.57,6.81Z"/>
  <path id="Path_90" data-name="Path 90" class="cls-1" d="M432,132.388A52.544,52.544,0,0,0,406.5,126a51.193,51.193,0,0,0-25.5,6.388,47.077,47.077,0,0,0-18.228,17.964A52.205,52.205,0,0,0,356,177a52.205,52.205,0,0,0,6.773,26.648A47.087,47.087,0,0,0,381,221.613,52.555,52.555,0,0,0,406.5,228a51.2,51.2,0,0,0,25.5-6.387,47.087,47.087,0,0,0,18.228-17.965A52.205,52.205,0,0,0,457,177a52.205,52.205,0,0,0-6.773-26.648A47.077,47.077,0,0,0,432,132.388ZM439.37,177c0,12.276-2.988,22.256-8.965,29.442-5.876,7.186-13.944,10.879-23.9,10.879s-18.029-3.693-23.9-10.879c-5.977-7.186-8.965-17.166-8.965-29.442s2.988-22.256,8.965-29.442c5.876-7.186,13.945-10.879,23.9-10.879s18.029,3.693,23.9,10.879C436.382,154.744,439.37,164.724,439.37,177Z"/>
  <path id="Path_91" data-name="Path 91" class="cls-1" d="M785,132.388A52.544,52.544,0,0,0,759.5,126a51.193,51.193,0,0,0-25.5,6.388,47.077,47.077,0,0,0-18.228,17.964A52.206,52.206,0,0,0,709,177a52.206,52.206,0,0,0,6.773,26.648A47.087,47.087,0,0,0,734,221.613,52.555,52.555,0,0,0,759.5,228a51.2,51.2,0,0,0,25.5-6.387,47.087,47.087,0,0,0,18.228-17.965A52.206,52.206,0,0,0,810,177a52.206,52.206,0,0,0-6.773-26.648A47.76,47.76,0,0,0,785,132.388ZM792.37,177c0,12.276-2.989,22.256-8.965,29.442-5.877,7.186-13.945,10.879-23.905,10.879s-18.029-3.693-23.905-10.879c-5.977-7.186-8.965-17.166-8.965-29.442,0-12.376,2.988-22.256,8.965-29.442,5.876-7.186,13.944-10.879,23.905-10.879s18.028,3.693,23.905,10.879S792.37,164.724,792.37,177Z"/>
  <path id="Path_92" data-name="Path 92" class="cls-1" d="M642.64,126a47.272,47.272,0,0,0-21.969,5.113,38.871,38.871,0,0,0-15.549,13.937,35.352,35.352,0,0,0-5.617,19.251,33.915,33.915,0,0,0,4.313,17.045,38.591,38.591,0,0,0,11.436,12.432L600.909,213.23a7.867,7.867,0,0,0-.7,8.221,7.782,7.782,0,0,0,7.022,4.312h4.113a30,30,0,0,0-9.43,9.725A25.69,25.69,0,0,0,598,248.923c0,8.623,3.812,15.742,11.335,21.056,7.424,5.314,17.856,8.021,31,8.021a74.841,74.841,0,0,0,25.781-4.412,45.318,45.318,0,0,0,19.36-12.833A29.862,29.862,0,0,0,692.9,240.5c0-8.221-3.01-14.037-10.032-19.651-6.018-4.713-15.448-7.219-27.185-7.219H615.555a.352.352,0,0,1-.2-.1s-.1-.2,0-.3l10.433-14.037a36.9,36.9,0,0,0,7.724,2.606,40.165,40.165,0,0,0,8.125.7,49.006,49.006,0,0,0,22.671-5.113,40.124,40.124,0,0,0,15.75-13.937,34.625,34.625,0,0,0,5.717-19.25c0-7.42-3.611-20.956-13.442-27.874a.1.1,0,0,1,.1-.1L694,138.633v-9.926H659.492A55.941,55.941,0,0,0,642.64,126Zm12.037,62.765a25.924,25.924,0,0,1-12.037,3.108,25.061,25.061,0,0,1-17.656-7.118c-5.015-4.713-7.523-11.631-7.523-20.454s2.508-15.742,7.523-20.454a25.061,25.061,0,0,1,17.656-7.119,24.838,24.838,0,0,1,21.467,12.333,29.817,29.817,0,0,1,3.711,15.24c0,6.116-1.2,11.229-3.711,15.24A23.77,23.77,0,0,1,654.677,188.765Zm-27.185,36.9h27.185c7.524,0,12.339,1.5,15.549,4.713a17.158,17.158,0,0,1,4.815,12.533,21.577,21.577,0,0,1-8.727,17.847c-5.819,4.512-13.643,6.818-23.273,6.818-8.427,0-15.449-1.9-20.565-5.515s-7.724-9.124-7.724-16.142a21.528,21.528,0,0,1,3.612-12.132A22.953,22.953,0,0,1,627.492,225.662Z"/>
  <path id="Path_93" data-name="Path 93" class="cls-1" d="M1082.35,224.327A12.255,12.255,0,0,1,1076,213.5a12.492,12.492,0,0,1,1.69-6.3,11.444,11.444,0,0,1,4.66-4.528,14.053,14.053,0,0,1,13.3,0A12.255,12.255,0,0,1,1102,213.5a12.492,12.492,0,0,1-1.69,6.3,11.444,11.444,0,0,1-4.66,4.528A13.622,13.622,0,0,1,1089,226,12.867,12.867,0,0,1,1082.35,224.327Zm12.21-1.378a10.342,10.342,0,0,0,3.87-3.839,12.017,12.017,0,0,0,0-11.22,9.147,9.147,0,0,0-3.87-3.839,11.906,11.906,0,0,0-11.12,0,10.342,10.342,0,0,0-3.87,3.839,12.017,12.017,0,0,0,0,11.22,9.147,9.147,0,0,0,3.87,3.839,11.641,11.641,0,0,0,5.56,1.378A11.356,11.356,0,0,0,1094.56,222.949Zm-10.92-3.445v-.886l.2-.1h.6a.767.767,0,0,0,.49-.2.537.537,0,0,0,.2-.492v-9.154a.746.746,0,0,0-.2-.492.547.547,0,0,0-.49-.2h-.6l-.2-.1V207l.2-.1H1089a5.369,5.369,0,0,1,3.47.984,3.206,3.206,0,0,1,1.29,2.756,3.021,3.021,0,0,1-.99,2.362,3.92,3.92,0,0,1-2.48,1.181l1.19.394,2.28,3.641a.756.756,0,0,0,.7.394h.59l.1.1v.885l-.1.1h-3.07l-.2-.1-3.18-5.315h-.79v3.544a.746.746,0,0,0,.2.492.547.547,0,0,0,.49.2h.6l.2.1v.886l-.2.1h-5.26Zm5.06-6.5a2.351,2.351,0,0,0,1.89-.689,2.714,2.714,0,0,0,.69-1.87,2.856,2.856,0,0,0-.59-1.87,2.069,2.069,0,0,0-1.69-.689h-.4a.74.74,0,0,0-.49.2.536.536,0,0,0-.2.492v4.429Z"/>
</svg>
